<svg id="Layer_1" data-name="Layer 1" xmlns="http://www.w3.org/2000/svg" viewBox="0 0 400.61 365.64"><defs><style>.cls-1{fill:none;stroke:#010101;stroke-miterlimit:10;}</style></defs><path class="cls-1" d="M45.84,82.78S28.61,67.72,28.61,50.48s19.66-25,19.66-25,23-7.4,24.38-8.42,12.26-2.17,12.26,7.66-.64,7.4-.64,7.4-19.41,4.6-7.66,15.32c0,0-7,7.15-3.07,14.43L67.8,63.76S60,53,55,58.27s1,18.51,11.24,18.13a5.84,5.84,0,0,0,2.17-1.28s14,19.79,33.19,21.45c0,0-4-11.62.77-14.68,0,0-1.66-8.3-.39-10,0,0,4.6-3.7,4.6-4.47s-.51-3.19-1.28-3.32S96.78,58.4,96.78,57s-1.41-6.52-1.28-10.73c0,0-7.4-14.55-19.4-19.53a25.08,25.08,0,0,0-20.94,2.68c-10.59,6.64-11,12.26-11.36,17.36s1.66,15.45,4,19.41,7,9.44,5.1,14.42c0,0-4.46,4.73-5.49,4.6S45.84,82.78,45.84,82.78Z" transform="translate(-12.33 -15.88)"/><path class="cls-1" d="M87.66,343.59c-.78-.07-10-1.07-5.22-10,3.58-6.8,9.14-4.35,11.92-2.51a4.83,4.83,0,0,1,2.07,3.24c.35,2.18.63,5.64-.71,7.1,0,0,7-3.41,6.12-10.73,0,0-8-5.44-6-8.34,0,0,2.72-3.06,9.36-1.7l55.83,3.58-54,18.89s-14.64,6.47-8.68,17.7c0,0-8.85,2.22-6.81,10.73,0,0,1.7,8.85,9.53,8.85,0,0,9.19-1,9.87-8,0,0-.17-7.32-4.76-10.56,0,0-1.53-2,3.06-2.55s61.79-15.49,61.79-16.17v.68l34.21,17.87s-12.08,6.13-2.55,17.88c0,0,9.53,5.61,15.49-4.77s2-22.3,2-22.3l-37.62-27.91,80.85,1v9.19s9.2,6-.34,14.13c0,0-7.66,3.06-11.06-1.87s.51-11.24.51-11.24l-59.23,3.06-31.66-19.91L163.12,291l16.51-1s3.74-1.19,4.26,5.11,3.06,22.13-2.73,24.85l-1.36-1-.34-32.68s3.23-11.41,1-12.94-13.62.17-13.62.17-1.36,12.26.34,13.28,4.43-9,4.43-9,.68-10.21-2-13.11c0,0-62,2.39-66.9.17s-12.59-1.36-17.87-11.23c0,0-4.76-15.83-6.47-23s-14.46-37.79-14.46-37.79-15.32-24.17-19.58-27.23-28.77-44.09-28.77-44.09S6,98,22.69,92.36,44.82,91,44.82,91s4.09,3.74,5.45,6.63,6.81,7.83,6.81,7.83,35.57,4.94,37.1,8.51a15.05,15.05,0,0,0-11.74-10.72c-9.7-1.87-26.72-6.3-27.58-6.81s-10-1.53-11.57,5.28-3.4,13.79-3.4,13.79-2.73,30.29,8,41.36c0,0,16.85,20.76,18.21,20.93s23.83,17.37,26,20.09c0,0,33.7-14,74.21-13.28,0,0,27.24-.17,23.15,16.34s-11.06,32.68-8.17,40c0,0,1.87,10.39,6.3,9.19s8.85-9.7,8.85-12.25,2.21-18.38,2.21-18.38,5.28-12.43,9.2-14.47,14.63-12.26,6.29-18.56c0,0-28.76-19.06-92.76-5.44,0,0-46,8.85-44.6,25.53s13.62,44.25,25.53,48S138.1,259,140.14,259s93.11-6.13,104.51-12.6,14-8.17,13.62-12.94-15.49-7.32-24-6.12-82.21,17.87-82.21,17.87-29.79,1.87-30.64,1.53-9-3.06-8.68-8.85-.68-18.55-.68-18.55-5.79-24-23-35.58S60,163.85,54,153s-9-22.13-5.95-50.38c0,0,.34-16.17-.69-17.36" transform="translate(-12.33 -15.88)"/><path class="cls-1" d="M48.91,84.53s8.17,10.89,9.87,24.68c0,0,26.55,4.42,37.28,18.89,0,0,8,8.34,18.89,9.19s20.59,1.19,26.72,7.49,18.05,22.13,18.05,24.17c0,0,18.21,2.05,18.38-14.81,0,0-2-8.17-11.07-16s-16-15.32-16-15.32-16.68-22.12-16.68-26-7-15.32-8.85-16.51-8.17-5.1-14.64-2a77.13,77.13,0,0,1-8.46,3.66s3,10.64-1.41,11.66S87.72,91,84.65,97.29c0,0,19.41,7.32,20.43,10.22,0,0,6.12,2.72,11.06,2.38,0,0,9.19,2.72,11.75,10.21s9.36,16.68,11.74,25.7,3.57,22.64,15.83,23.49c0,0,7.32.85,11.74-1.53,0,0-7.48-15.79-27.46-23.83,0,0-4.85,19.79,5.8,31.72,0,0,10.73,3.77,17.75-1.59,7.54-5.76,3.91-6.3,3.91-6.3" transform="translate(-12.33 -15.88)"/><path class="cls-1" d="M361.67,343.59s.9-5.62-14.3-4.08-22.34-4.6-22.34-4.6-9.95-10.09-8.42-15.32c0,0,12.89,13.66,22.34,15.32,0,0,25.15-1.53,26.17,6.38s-19.28,11.49-19.28,11.49S327.46,356,317.25,352s-13.66-7.79-16.34-4.22l-.64,5.88-20-3.07a35.33,35.33,0,0,1,4.46-29.87s12.39-16.85,13.41-17.36,8.81-17,6.64-43c0,0,3.83,30.64,7.78,43.15l.26,13-24.13,5.61s-8.55,3.45-8.68-9.32-.64-26.17-.64-26.17-3.7-26.93-4.72-30.76-2.81-25.79-.77-29.75.26-8.55.26-8.55-10.6-1.15-15.83,6.89c0,0,24.38-.51,36-10.85,0,0,2.17,16.47,27.45,38.05S352,271.21,352,271.21a39.41,39.41,0,0,0,34.21,3.44s10.47-6.38,12-8.29S409,261,412.35,264.82c0,0-11.87,24.26-36.63,31.66,0,0-12.39,3.58-13.66,6.13s4.21,6.13,4.21,6.13-18.38,11.36-21.7,15.45a46.38,46.38,0,0,1-14.68-30.13c-1.66-19.41-9.07-33.7-11.11-36.13s-26-33.57-28-39.19-2-25.79-2-25.79-2.17-9.44-7.15-10.47-11,4.73-19.28,5.75-31.15,2.81-36.89-2.81c0,0,0-4.72,31.66,1,0,0,9.19,1.28,12.77,2.81s8.55,4,13.65,18.26,21.32,39.83,21.32,39.83S321,279,321.33,281.93s3.32,1.15,8.94-4.34A111.46,111.46,0,0,1,343.42,267a55.79,55.79,0,0,1-2.05-6.9c-.25-1.91-11.74-25-18.38-43.28s-8.55-24.63-8.55-24.63-9.58-29-20.55-32.81-21.71-.38-21.71-.38-23.1,5.36-23.87,5.36-22.21,5.87-28,6.64-26.68.12-33.57-3.45-7.28-4.73-7.28-4.73,13.41-3.06,19.92-.51c0,0,5.1,2.3,6.12,3.71s16,5.1,20.56,3.44,8.81-1.66,8.42-2.55S219.84,153.63,211,153s-18.25-1.41-22.21-2.18-11.36-.51-13.79,2.94-10.46,5-13.4,2.94-6.77-7.66-6.77-7.66-1.78-4.09-14.55-6.9l-4.85-2.68S118.74,115,78.14,115.85a20.83,20.83,0,0,0-15.06,19,45.93,45.93,0,0,0,7.15,27.44,35.62,35.62,0,0,0,21.57,12.9c14.43,2.68,55.7-3.41,63.66-5.92" transform="translate(-12.33 -15.88)"/><path class="cls-1" d="M352.1,281.93c-1,.89-6.9,6.64-8.56,7.28s-7.53,5.87-7.14,8,7.53-2,7.53-2,9.32-11.87,9.32-15.7-3.58-8.43-5.75-8.56,2.81,5.75,4.47,7.66S352.1,281.93,352.1,281.93Z" transform="translate(-12.33 -15.88)"/></svg>